<?xml version="1.0" encoding="iso-8859-1"?>
<!-- Generator: Adobe Illustrator 19.0.0, SVG Export Plug-In . SVG Version: 6.00 Build 0)  -->
<svg version="1.1" id="Layer_1" xmlns="http://www.w3.org/2000/svg" xmlns:xlink="http://www.w3.org/1999/xlink" x="0px" y="0px"
	 viewBox="0 0 512 512" style="enable-background:new 0 0 512 512;" xml:space="preserve">
<circle style="fill:#5184FA;" cx="120.922" cy="256" r="110.723"/>
<circle style="fill:#E13E97;" cx="391.078" cy="256" r="110.723"/>
<path style="fill:#2351BA;" d="M120.924,376.925C54.247,376.925,0,322.677,0,256s54.247-120.925,120.924-120.925
	S241.849,189.323,241.849,256S187.602,376.925,120.924,376.925z M120.924,155.475c-55.43,0-100.525,45.095-100.525,100.525
	s45.096,100.526,100.525,100.526S221.45,311.431,221.45,256S176.354,155.475,120.924,155.475z"/>
<path style="fill:#C13581;" d="M391.076,376.925c-66.678,0-120.925-54.247-120.925-120.925s54.247-120.925,120.925-120.925
	S512,189.323,512,256S457.754,376.925,391.076,376.925z M391.076,155.475c-55.431,0-100.526,45.096-100.526,100.526
	s45.096,100.526,100.526,100.526S491.602,311.431,491.602,256S446.506,155.475,391.076,155.475z"/>
<g>
	<path style="fill:#2351BA;" d="M114.22,192.49c-5.222,0-9.672-3.99-10.147-9.29c-0.502-5.611,3.64-10.565,9.25-11.068
		c2.514-0.224,5.071-0.339,7.601-0.339c5.633,0,10.199,4.566,10.199,10.199c0,5.633-4.566,10.199-10.199,10.199
		c-1.926,0-3.872,0.087-5.784,0.258C114.831,192.476,114.524,192.49,114.22,192.49z"/>
	<path style="fill:#2351BA;" d="M46.916,266.199c-5.633,0-10.199-4.566-10.199-10.199c0-28.582,14.314-54.974,38.289-70.596
		c4.719-3.074,11.038-1.742,14.114,2.977c3.075,4.719,1.742,11.039-2.977,14.114C67.966,214.337,57.116,234.34,57.116,256
		C57.116,261.633,52.549,266.199,46.916,266.199z"/>
</g>
<g>
</g>
<g>
</g>
<g>
</g>
<g>
</g>
<g>
</g>
<g>
</g>
<g>
</g>
<g>
</g>
<g>
</g>
<g>
</g>
<g>
</g>
<g>
</g>
<g>
</g>
<g>
</g>
<g>
</g>
</svg>
